<?xml version="1.0" encoding="UTF-8" standalone="no"?>
<!-- Created with Inkscape (http://www.inkscape.org/) -->

<svg
   xmlns:dc="http://purl.org/dc/elements/1.1/"
   xmlns:cc="http://creativecommons.org/ns#"
   xmlns:rdf="http://www.w3.org/1999/02/22-rdf-syntax-ns#"
   xmlns:svg="http://www.w3.org/2000/svg"
   xmlns="http://www.w3.org/2000/svg"
   xmlns:sodipodi="http://sodipodi.sourceforge.net/DTD/sodipodi-0.dtd"
   xmlns:inkscape="http://www.inkscape.org/namespaces/inkscape"
   width="785"
   height="273"
   id="svg2"
   version="1.1"
   inkscape:version="0.91 r13725"
   sodipodi:docname="Showtime_1997.svg">
  <metadata
     id="metadata15">
    <rdf:RDF>
      <cc:Work
         rdf:about="">
        <dc:format>image/svg+xml</dc:format>
        <dc:type
           rdf:resource="http://purl.org/dc/dcmitype/StillImage" />
      </cc:Work>
    </rdf:RDF>
  </metadata>
  <defs
     id="defs13" />
  <sodipodi:namedview
     pagecolor="#ffffff"
     bordercolor="#666666"
     borderopacity="1"
     objecttolerance="10"
     gridtolerance="10"
     guidetolerance="10"
     inkscape:pageopacity="0"
     inkscape:pageshadow="2"
     inkscape:window-width="1366"
     inkscape:window-height="709"
     id="namedview11"
     showgrid="false"
     inkscape:zoom="0.45350318"
     inkscape:cx="353.91152"
     inkscape:cy="136.5"
     inkscape:window-x="-8"
     inkscape:window-y="-8"
     inkscape:window-maximized="1"
     inkscape:current-layer="layer1" />
  <g
     inkscape:label="Layer 1"
     inkscape:groupmode="layer"
     id="layer1"
     transform="translate(451.57121,-387.01972)">
    <path
       id="path3680"
       d="m -424.58619,586.97668 c 8.71861,0 14.91168,-7.66447 14.91168,-18.83175 0,-23.10321 -20.23727,-27.60526 -41.89104,-47.12879 -0.30746,39.57413 11.95789,65.96054 26.97936,65.96054"
       style="fill:#ff0000;fill-rule:evenodd;stroke:none" />
    <path
       id="path3682"
       d="m -271.30781,615.53726 -31.22886,0 0,-77.7098 -33.73245,0 0,77.7098 -31.29474,0 0,-179.30243 31.23984,0 0,72.19753 33.78735,0 0,-72.19753 31.22886,0 0,179.30243 z m 13.01203,-90.12888 c 0,-54.69443 20.21531,-89.2065 44.38364,-92.8301 -24.15735,-29.70256 -64.50013,-45.55856 -101.16439,-45.55856 -40.34277,0 -76.60076,17.5031 -101.58165,45.31699 23.83891,4.74362 31.93162,24.72834 31.93162,55.63877 l -29.14255,0 c 0,-18.2388 -3.79929,-27.68213 -14.59323,-27.68213 -4.87539,0 -8.66371,2.45966 -10.87081,6.64327 -0.31844,0.72472 -0.63687,1.40552 -0.94433,2.13024 -0.84551,2.33887 -1.29571,5.02912 -1.29571,8.04879 0,37.81723 62.10634,35.93955 62.10634,94.04895 0,22.70791 -17.40427,43.88951 -36.99368,43.88951 25.74954,28.13233 60.89848,44.96561 101.384,44.96561 39.3655,0 74.82189,-16.67955 99.73691,-43.3295 -22.98243,-5.76482 -42.95616,-38.81647 -42.95616,-91.28184"
       style="fill:#ff0000;fill-rule:evenodd;stroke:none" />
    <path
       id="path3684"
       d="m -227.25359,522.49852 c 0,-30.17472 8.77351,-60.36043 24.80521,-60.36043 19.07332,0 23.87185,46.63467 23.87185,61.39261 0,32.32692 -10.16805,61.54634 -23.87185,61.54634 -16.44896,0 -24.80521,-30.76768 -24.80521,-62.57852"
       style="fill:#ff0000;fill-rule:evenodd;stroke:none" />
    <path
       id="path3686"
       d="m 84.727587,438.71645 -131.66853,0 -12.506919,102.38323 -0.472166,0 -13.97832,-102.38323 -28.648422,0 -15.18619,102.38323 -0.5051,0 -11.26611,-102.38323 -28.90098,0 23.26792,174.40507 27.93468,0 15.680318,-110.47595 0.483147,0 15.186188,110.47595 28.911954,0 19.249014,-147.46963 27.0452501,0 0,147.46963 31.8218169,0 0,-147.46963 29.175488,0 0,147.46963 31.843778,0 0,-174.40507 -7.466817,0"
       style="fill:#ff0000;fill-rule:nonzero;stroke:none" />
    <path
       id="path3688"
       d="m 107.8308,438.71645 42.3632,0 14.20892,89.40415 0.48314,0 14.94462,-89.40415 41.39691,0 0,174.40507 -28.39587,0 0,-127.86924 -0.51609,0 -21.53298,127.86924 -17.64584,0 -21.31337,-127.86924 -0.47217,0 0,127.86924 -23.52047,0 0,-174.40507"
       style="fill:#ff0000;fill-rule:nonzero;stroke:none" />
    <path
       id="path3690"
       d="m 236.87496,438.71645 72.01086,0 0,26.93544 -40.16708,0 0,44.55933 29.65863,0 0,28.41782 -29.65863,0 0,47.53508 41.92398,0 0,26.9574 -73.76776,0 0,-174.40507"
       style="fill:#ff0000;fill-rule:nonzero;stroke:none" />
    <path
       id="path3692"
       d="m 330.78116,606.45629 c 0,4.20557 -3.00868,7.03857 -6.53346,7.03857 l 0,-0.022 c -3.6236,0.022 -6.54445,-2.81104 -6.54445,-7.01661 0,-4.19459 2.92085,-7.00563 6.54445,-7.00563 3.52478,0 6.53346,2.81104 6.53346,7.00563 z m 2.63535,0 c 0,-5.7758 -4.32636,-9.13587 -9.16881,-9.13587 -4.86441,0 -9.17979,3.36007 -9.17979,9.13587 0,5.7758 4.31538,9.14685 9.17979,9.14685 4.84245,0 9.16881,-3.37105 9.16881,-9.14685 z m -10.69512,0.76864 0.99924,0 2.27299,4.12871 2.4926,0 -2.51457,-4.29342 c 1.29572,-0.0988 2.37182,-0.74668 2.37182,-2.55848 0,-2.24004 -1.50435,-2.97575 -4.02989,-2.97575 l -3.68948,0 0,9.82765 2.09729,0 0,-4.12871 z m 0,-1.65807 0,-2.37181 1.48239,0 c 0.7906,0 1.88866,0.0769 1.88866,1.08708 0,1.08708 -0.56001,1.28473 -1.49336,1.28473 l -1.87769,0"
       style="fill:#ff0000;fill-rule:nonzero;stroke:none" />
  </g>
</svg>
